<?xml version="1.0" encoding="UTF-8"?>
<svg xmlns="http://www.w3.org/2000/svg" xmlns:xlink="http://www.w3.org/1999/xlink" width="25px" height="25px" viewBox="0 0 25 25" version="1.1">
<g id="surface1">
<path style=" stroke:none;fill-rule:nonzero;fill:rgb(94.117647%,7.843137%,35.294118%);fill-opacity:1;" d="M 25 12.578125 C 25 5.628906 19.402344 0 12.5 0 C 5.597656 0 0 5.628906 0 12.578125 C 0 18.855469 4.570312 24.054688 10.546875 25 L 10.546875 16.210938 L 7.371094 16.210938 L 7.371094 12.578125 L 10.546875 12.578125 L 10.546875 9.804688 C 10.546875 6.652344 12.414062 4.914062 15.269531 4.914062 C 16.636719 4.914062 18.066406 5.160156 18.066406 5.160156 L 18.066406 8.253906 L 16.488281 8.253906 C 14.9375 8.253906 14.453125 9.222656 14.453125 10.21875 L 14.453125 12.578125 L 17.921875 12.578125 L 17.367188 16.210938 L 14.453125 16.210938 L 14.453125 25 C 20.429688 24.054688 25 18.855469 25 12.578125 Z M 25 12.578125 "/>
</g>
</svg>
